<svg width="187" height="80" viewBox="0 0 187 80" fill="none" xmlns="http://www.w3.org/2000/svg">
<path d="M26.9273 6.96455V0.872366C25.0048 0.31853 23.0145 0 20.2895 0C19.5014 0 0 0 0 19.975V60.145H6.29152V19.5774C6.29152 5.8168 19.8692 6.07881 20.8423 6.07881C23.2765 6.07881 24.9339 6.31515 26.9273 6.96455Z" fill="#FEFFFE"/>
<path d="M37.4239 23.0342H31.2988V60.3014H37.4239V23.0342Z" fill="#FEFFFE"/>
<path d="M52.2247 23.0356L46.0996 23.0284V60.3028H52.2247V38.8296C52.2247 32.0007 55.2292 27.7899 61.1754 27.7899C67.0744 27.7899 70.1262 31.9185 70.1262 38.8296V60.3028H76.2513V38.8296C76.2513 31.191 79.9031 27.7899 85.202 27.7899C91.0609 27.7899 94.1528 31.8589 94.1528 38.8296V60.3028H100.278V38.3066C100.35 28.8442 94.3706 22.1046 85.202 22.1221C80.3346 22.1314 76.2009 24.1854 73.2129 28.3417C70.5917 24.4094 66.2226 22.1221 61.1754 22.1221C56.9965 22.1221 53.9787 23.8638 52.2247 25.6979V23.0356Z" fill="#FEFFFE"/>
<path d="M136.456 38.4423H110.461C111.662 32.3162 117.033 27.7879 123.427 27.7879C129.181 27.7879 134.989 31.7049 136.456 38.4423ZM142.877 42.0274C142.769 38.8482 142.171 35.2868 140.082 31.8919C137.499 27.2485 131.825 22.2116 123.362 22.1201C112.221 22.3421 104.043 31.4798 104.043 41.7006C104.043 52.8636 113.214 61.1506 123.427 61.1506C131.989 61.1506 139.558 55.454 142.064 47.0612H135.626C134.066 51.6604 129.613 55.3625 123.362 55.4828C117.822 55.4828 111.356 51.2155 110.362 44.1101H142.812C142.848 43.5008 142.893 42.4846 142.877 42.0274Z" fill="#FEFFFE"/>
<path d="M179.861 41.7006C179.861 49.4646 173.816 55.4828 166.34 55.4828C158.298 55.4828 152.492 49.6608 152.492 41.7664C152.492 33.3098 158.69 27.7879 166.34 27.7879C173.96 27.7879 179.861 34.0641 179.861 41.7006ZM185.724 60.3019V23.0346H179.599L179.6 27.8691C175.206 22.8404 169.372 22.1201 166.34 22.1201C154.092 22.1201 146.367 31.7377 146.367 41.5701C146.367 51.9224 154.382 61.1506 166.34 61.1506C169.818 61.1506 175.517 60.1138 179.6 55.3543L179.599 60.3019H185.724Z" fill="#FEFFFE"/>
<path d="M27.6865 20.739V20.0177C27.6865 18.5699 26.513 17.3965 25.0652 17.3965H12.3908C10.943 17.3965 9.76953 18.5699 9.76953 20.0177V20.739C9.76953 22.1868 10.943 23.3602 12.3908 23.3602H25.0652C26.513 23.3602 27.6865 22.1868 27.6865 20.739Z" fill="#C50084"/>
<path d="M182.77 77.6289C183.238 77.8159 183.748 77.8786 184.257 77.8786C185.059 77.8786 186.11 77.4932 186.11 76.3691C186.11 74.6326 183.498 74.757 183.498 73.7685C183.498 73.0924 183.966 72.8848 184.643 72.8848C185.006 72.8848 185.475 72.9773 185.818 73.1345L185.881 72.5611C185.412 72.3844 184.851 72.3228 184.57 72.3228C183.696 72.3228 182.842 72.7183 182.842 73.7685C182.842 75.3077 185.392 75.1104 185.392 76.3691C185.392 76.9723 184.84 77.3165 184.216 77.3165C183.707 77.3165 183.228 77.1809 182.832 76.9836L182.77 77.6289ZM181.658 72.4471H181.002V75.3817C181.002 76.2653 180.628 77.3165 179.431 77.3165C178.527 77.3165 178.172 76.6712 178.172 75.6725V72.4471H177.517V75.8389C177.517 77.0041 178.016 77.8786 179.327 77.8786C180.43 77.8786 180.825 77.2847 181.044 76.8058H181.065V77.7532H181.699C181.658 77.3268 181.658 76.9106 181.658 76.5048V72.4471ZM172.48 77.7532H173.134V75.0272L175.757 77.7532H176.662L173.759 74.7981L176.349 72.4471H175.507L173.134 74.6213V69.9502H172.48V77.7532ZM168.009 77.6289C168.478 77.8159 168.987 77.8786 169.497 77.8786C170.298 77.8786 171.349 77.4932 171.349 76.3691C171.349 74.6326 168.738 74.757 168.738 73.7685C168.738 73.0924 169.205 72.8848 169.882 72.8848C170.246 72.8848 170.715 72.9773 171.058 73.1345L171.119 72.5611C170.652 72.3844 170.09 72.3228 169.809 72.3228C168.935 72.3228 168.082 72.7183 168.082 73.7685C168.082 75.3077 170.631 75.1104 170.631 76.3691C170.631 76.9723 170.08 77.3165 169.455 77.3165C168.945 77.3165 168.467 77.1809 168.072 76.9836L168.009 77.6289ZM163.561 74.7251C163.561 73.8517 164.154 72.8848 165.122 72.8848C166.099 72.8848 166.474 73.8003 166.474 74.7251H163.561ZM166.796 76.9209C166.484 77.1182 165.788 77.3165 165.309 77.3165C164.164 77.3165 163.561 76.4113 163.561 75.2871H167.191V74.9542C167.191 73.5291 166.578 72.3228 165.08 72.3228C163.738 72.3228 162.843 73.4767 162.843 75.1001C162.843 76.6918 163.498 77.8786 165.256 77.8786C165.745 77.8786 166.338 77.7738 166.796 77.5868V76.9209ZM158.328 77.7532H158.983V75.0272L161.605 77.7532H162.51L159.607 74.7981L162.197 72.4471H161.355L158.983 74.6213V69.9502H158.328V77.7532ZM153.857 77.6289C154.326 77.8159 154.835 77.8786 155.345 77.8786C156.146 77.8786 157.196 77.4932 157.196 76.3691C157.196 74.6326 154.586 74.757 154.586 73.7685C154.586 73.0924 155.054 72.8848 155.73 72.8848C156.094 72.8848 156.562 72.9773 156.906 73.1345L156.968 72.5611C156.5 72.3844 155.938 72.3228 155.657 72.3228C154.783 72.3228 153.93 72.7183 153.93 73.7685C153.93 75.3077 156.479 75.1104 156.479 76.3691C156.479 76.9723 155.927 77.3165 155.304 77.3165C154.793 77.3165 154.315 77.1809 153.92 76.9836L153.857 77.6289ZM152.732 71.0322V70.1578H152.076V71.0322H152.732ZM152.076 72.4471V77.7532H152.732V72.4471H152.076ZM150.513 77.7532V74.1014C150.513 73.0718 149.91 72.3228 148.839 72.3228C148.006 72.3228 147.383 72.8221 147.143 73.4458H147.122C146.955 72.52 146.186 72.3228 145.718 72.3228C144.584 72.3228 144.271 72.9886 144.064 73.3523L144.042 73.342V72.4471H143.408C143.45 72.8735 143.45 73.2896 143.45 73.6955V77.7532H144.105V74.8196C144.105 73.4982 144.813 72.8848 145.531 72.8848C146.372 72.8848 146.654 73.4767 146.654 74.2257V77.7532H147.31V74.8196C147.31 73.4982 148.017 72.8848 148.735 72.8848C149.577 72.8848 149.859 73.4767 149.859 74.2257V77.7532H150.513ZM138.788 70.689V71.5634H139.568V70.689H138.788ZM140.567 70.689V71.5634H141.347V70.689H140.567ZM141.274 75.4022C141.274 75.9735 141.243 77.3165 139.703 77.3165C139.1 77.3165 138.6 77.0555 138.6 76.3589C138.6 75.1936 139.953 75.0796 141.087 75.0796H141.274V75.4022ZM141.337 77.7532H141.982C141.929 77.3884 141.929 77.0668 141.929 76.6394V74.2997C141.929 72.9156 141.378 72.3228 140.068 72.3228C139.599 72.3228 138.913 72.4892 138.507 72.6865V73.3215C138.996 73.0091 139.516 72.8848 140.068 72.8848C140.952 72.8848 141.274 73.342 141.274 74.2473V74.5175H141.15C139.776 74.5175 137.883 74.6008 137.883 76.3794C137.883 76.8582 138.123 77.8786 139.63 77.8786C140.285 77.8786 141.024 77.5343 141.316 76.9004H141.337V77.7532ZM137.011 72.4471H135.804V70.9387L135.149 71.1678V72.4471H134.108V73.0091H135.149V76.1092C135.149 77.0771 135.19 77.8786 136.355 77.8786C136.678 77.8786 137 77.7953 137.157 77.7327L137.116 77.1911C136.928 77.2641 136.761 77.3165 136.511 77.3165C135.981 77.3165 135.804 76.9209 135.804 76.4421V73.0091H137.011V72.4471ZM133.324 72.4471H132.117V70.9387L131.461 71.1678V72.4471H130.421V73.0091H131.461V76.1092C131.461 77.0771 131.503 77.8786 132.668 77.8786C132.991 77.8786 133.314 77.7953 133.47 77.7327L133.428 77.1911C133.241 77.2641 133.074 77.3165 132.825 77.3165C132.293 77.3165 132.117 76.9209 132.117 76.4421V73.0091H133.324V72.4471ZM129.407 71.0322V70.1578H128.751V71.0322H129.407ZM128.751 72.4471V77.7532H129.407V72.4471H128.751ZM123.041 77.7532H123.697V74.9131C123.697 73.9873 124.102 72.8848 125.267 72.8848C126.349 72.8848 126.527 73.675 126.527 74.5905V77.7532H127.181V74.5802C127.181 73.2691 126.797 72.3228 125.371 72.3228C124.591 72.3228 123.998 72.7594 123.718 73.342H123.697V69.9502H123.041V77.7532ZM118.163 74.7251C118.163 73.8517 118.756 72.8848 119.724 72.8848C120.701 72.8848 121.076 73.8003 121.076 74.7251H118.163ZM121.399 76.9209C121.086 77.1182 120.39 77.3165 119.911 77.3165C118.766 77.3165 118.163 76.4113 118.163 75.2871H121.793V74.9542C121.793 73.5291 121.18 72.3228 119.682 72.3228C118.34 72.3228 117.445 73.4767 117.445 75.1001C117.445 76.6918 118.1 77.8786 119.858 77.8786C120.347 77.8786 120.94 77.7738 121.399 77.5868V76.9209ZM112.93 77.7532H113.585V75.0272L116.206 77.7532H117.112L114.209 74.7981L116.799 72.4471H115.957L113.585 74.6213V69.9502H112.93V77.7532ZM107.572 75.4022C107.572 75.9735 107.54 77.3165 106.001 77.3165C105.397 77.3165 104.898 77.0555 104.898 76.3589C104.898 75.1936 106.251 75.0796 107.384 75.0796H107.572V75.4022ZM107.634 77.7532H108.279C108.227 77.3884 108.227 77.0668 108.227 76.6394V74.2997C108.227 72.9156 107.676 72.3228 106.365 72.3228C105.896 72.3228 105.21 72.4892 104.804 72.6865V73.3215C105.293 73.0091 105.813 72.8848 106.365 72.8848C107.25 72.8848 107.572 73.342 107.572 74.2473V74.5175H107.447C106.074 74.5175 104.18 74.6008 104.18 76.3794C104.18 76.8582 104.42 77.8786 105.928 77.8786C106.584 77.8786 107.323 77.5343 107.613 76.9004H107.634V77.7532ZM103.019 71.0322V70.1578H102.364V71.0322H103.019ZM101.251 79.948C101.355 79.9685 101.542 80.0004 101.823 80.0004C102.78 80.0004 103.019 79.3551 103.019 78.5023V72.4471H102.364V78.419C102.364 78.9698 102.311 79.4384 101.645 79.4384C101.521 79.4384 101.344 79.4075 101.251 79.3767V79.948ZM95.3622 74.5905V75.3077H97.9741V74.5905H95.3622ZM91.2325 77.6289C91.7001 77.8159 92.2097 77.8786 92.7204 77.8786C93.5208 77.8786 94.572 77.4932 94.572 76.3691C94.572 74.6326 91.96 74.757 91.96 73.7685C91.96 73.0924 92.4286 72.8848 93.1047 72.8848C93.4695 72.8848 93.937 72.9773 94.2802 73.1345L94.3428 72.5611C93.8743 72.3844 93.3133 72.3228 93.0317 72.3228C92.1583 72.3228 91.3055 72.7183 91.3055 73.7685C91.3055 75.3077 93.8538 75.1104 93.8538 76.3691C93.8538 76.9723 93.303 77.3165 92.6783 77.3165C92.1686 77.3165 91.6898 77.1809 91.2942 76.9836L91.2325 77.6289ZM90.1197 72.4471H89.4642V75.3817C89.4642 76.2653 89.0901 77.3165 87.8941 77.3165C86.9878 77.3165 86.6344 76.6712 86.6344 75.6725V72.4471H85.9798V75.8389C85.9798 77.0041 86.4792 77.8786 87.7893 77.8786C88.8929 77.8786 89.2874 77.2847 89.5063 76.8058H89.5268V77.7532H90.1619C90.1197 77.3268 90.1197 76.9106 90.1197 76.5048V72.4471ZM84.4242 72.4471H83.7686V75.3817C83.7686 76.2653 83.3946 77.3165 82.1975 77.3165C81.2923 77.3165 80.9388 76.6712 80.9388 75.6725V72.4471H80.2833V75.8389C80.2833 77.0041 80.7826 77.8786 82.0938 77.8786C83.1963 77.8786 83.5919 77.2847 83.8107 76.8058H83.8313V77.7532H84.4653C84.4242 77.3268 84.4242 76.9106 84.4242 76.5048V72.4471ZM75.8628 77.6289C76.3314 77.8159 76.8411 77.8786 77.3507 77.8786C78.1511 77.8786 79.2023 77.4932 79.2023 76.3691C79.2023 74.6326 76.5914 74.757 76.5914 73.7685C76.5914 73.0924 77.0599 72.8848 77.736 72.8848C78.0998 72.8848 78.5683 72.9773 78.9115 73.1345L78.9742 72.5611C78.5056 72.3844 77.9436 72.3228 77.6631 72.3228C76.7886 72.3228 75.9358 72.7183 75.9358 73.7685C75.9358 75.3077 78.4851 75.1104 78.4851 76.3691C78.4851 76.9723 77.9333 77.3165 77.3096 77.3165C76.7989 77.3165 76.3211 77.1809 75.9255 76.9836L75.8628 77.6289ZM74.7377 71.0322V70.1578H74.0821V71.0322H74.7377ZM74.0821 72.4471V77.7532H74.7377V72.4471H74.0821ZM71.8565 69.9502V77.7532H72.5121V69.9502H71.8565ZM69.632 69.9502V77.7532H70.2875V69.9502H69.632ZM67.4526 75.4022C67.4526 75.9735 67.4207 77.3165 65.8805 77.3165C65.2773 77.3165 64.7779 77.0555 64.7779 76.3589C64.7779 75.1936 66.1301 75.0796 67.2645 75.0796H67.4526V75.4022ZM67.5142 77.7532H68.1595C68.1071 77.3884 68.1071 77.0668 68.1071 76.6394V74.2997C68.1071 72.9156 67.5564 72.3228 66.2452 72.3228C65.7767 72.3228 65.0903 72.4892 64.6844 72.6865V73.3215C65.1735 73.0091 65.6935 72.8848 66.2452 72.8848C67.1289 72.8848 67.4526 73.342 67.4526 74.2473V74.5175H67.3272C65.9545 74.5175 64.0607 74.6008 64.0607 76.3794C64.0607 76.8582 64.2991 77.8786 65.8085 77.8786C66.4631 77.8786 67.2029 77.5343 67.4937 76.9004H67.5142V77.7532ZM63.623 72.4471H62.9366L61.3974 77.035H61.3768L59.9095 72.4471H59.1913L60.9915 77.7532H61.7611L63.623 72.4471ZM56.0902 77.7532H56.7458V75.132C56.7458 74.1743 57.0263 73.0091 58.0672 73.0091C58.2336 73.0091 58.4104 73.0297 58.546 73.0718V72.3844C58.4309 72.3536 58.2439 72.3228 58.0877 72.3228C57.4116 72.3228 56.9646 72.8735 56.7252 73.4674H56.7047V72.4471H56.0491C56.0902 72.8324 56.0902 73.0513 56.0902 73.6339V77.7532ZM54.5037 72.4471H53.8482V75.3817C53.8482 76.2653 53.4741 77.3165 52.2771 77.3165C51.3718 77.3165 51.0184 76.6712 51.0184 75.6725V72.4471H50.3628V75.8389C50.3628 77.0041 50.8622 77.8786 52.1733 77.8786C53.2758 77.8786 53.6714 77.2847 53.8903 76.8058H53.9108V77.7532H54.5459C54.5037 77.3268 54.5037 76.9106 54.5037 76.5048V72.4471ZM49.2767 72.4471H48.0704V70.9387L47.4149 71.1678V72.4471H46.375V73.0091H47.4149V76.1092C47.4149 77.0771 47.457 77.8786 48.6222 77.8786C48.9438 77.8786 49.2664 77.7953 49.4226 77.7327L49.3815 77.1911C49.1935 77.2641 49.027 77.3165 48.7773 77.3165C48.2471 77.3165 48.0704 76.9209 48.0704 76.4421V73.0091H49.2767V72.4471ZM38.0623 77.7532H38.7179V74.8196C38.7179 73.9349 39.0919 72.8848 40.288 72.8848C41.1932 72.8848 41.5477 73.5291 41.5477 74.5278V77.7532H42.2022V74.3613C42.2022 73.1961 41.7029 72.3228 40.3928 72.3228C39.2892 72.3228 38.8946 72.9156 38.6758 73.3934H38.6552V72.4471H38.0202C38.0623 72.8735 38.0623 73.2896 38.0623 73.6955V77.7532ZM35.8871 75.4022C35.8871 75.9735 35.8552 77.3165 34.316 77.3165C33.7118 77.3165 33.2124 77.0555 33.2124 76.3589C33.2124 75.1936 34.5657 75.0796 35.699 75.0796H35.8871V75.4022ZM35.9487 77.7532H36.594C36.5416 77.3884 36.5416 77.0668 36.5416 76.6394V74.2997C36.5416 72.9156 35.9908 72.3228 34.6797 72.3228C34.2112 72.3228 33.5248 72.4892 33.1189 72.6865V73.3215C33.608 73.0091 34.128 72.8848 34.6797 72.8848C35.5644 72.8848 35.8871 73.342 35.8871 74.2473V74.5175H35.7617C34.3889 74.5175 32.4952 74.6008 32.4952 76.3794C32.4952 76.8582 32.7346 77.8786 34.243 77.8786C34.8986 77.8786 35.6363 77.5343 35.9282 76.9004H35.9487V77.7532ZM30.6631 69.9502V77.7532H31.3187V69.9502H30.6631ZM28.4838 75.4022C28.4838 75.9735 28.4519 77.3165 26.9127 77.3165C26.3095 77.3165 25.8102 77.0555 25.8102 76.3589C25.8102 75.1936 27.1624 75.0796 28.2957 75.0796H28.4838V75.4022ZM28.5454 77.7532H29.1907C29.1393 77.3884 29.1393 77.0668 29.1393 76.6394V74.2997C29.1393 72.9156 28.5875 72.3228 27.2764 72.3228C26.8089 72.3228 26.1215 72.4892 25.7156 72.6865V73.3215C26.2047 73.0091 26.7257 72.8848 27.2764 72.8848C28.1611 72.8848 28.4838 73.342 28.4838 74.2473V74.5175H28.3584C26.9856 74.5175 25.0919 74.6008 25.0919 76.3794C25.0919 76.8582 25.3313 77.8786 26.8397 77.8786C27.4953 77.8786 28.2341 77.5343 28.5249 76.9004H28.5454V77.7532ZM20.6458 74.7251C20.6458 73.8517 21.2387 72.8848 22.2056 72.8848C23.1838 72.8848 23.5588 73.8003 23.5588 74.7251H20.6458ZM23.8805 76.9209C23.5691 77.1182 22.8714 77.3165 22.3936 77.3165C21.249 77.3165 20.6458 76.4113 20.6458 75.2871H24.2761V74.9542C24.2761 73.5291 23.6626 72.3228 22.1645 72.3228C20.8226 72.3228 19.9276 73.4767 19.9276 75.1001C19.9276 76.6918 20.5831 77.8786 22.3412 77.8786C22.8303 77.8786 23.4232 77.7738 23.8805 77.5868V76.9209ZM15.4127 77.7532H16.0682V75.0272L18.6894 77.7532H19.5947L16.6919 74.7981L19.2823 72.4471H18.4397L16.0682 74.6213V69.9502H15.4127V77.7532ZM10.7508 70.689V71.5634H11.5307V70.689H10.7508ZM12.5294 70.689V71.5634H13.3093V70.689H12.5294ZM13.2374 75.4022C13.2374 75.9735 13.2055 77.3165 11.6663 77.3165C11.0621 77.3165 10.5627 77.0555 10.5627 76.3589C10.5627 75.1936 11.916 75.0796 13.0493 75.0796H13.2374V75.4022ZM13.299 77.7532H13.9443C13.8919 77.3884 13.8919 77.0668 13.8919 76.6394V74.2997C13.8919 72.9156 13.3412 72.3228 12.03 72.3228C11.5615 72.3228 10.8751 72.4892 10.4692 72.6865V73.3215C10.9583 73.0091 11.4783 72.8848 12.03 72.8848C12.9147 72.8848 13.2374 73.342 13.2374 74.2473V74.5175H13.112C11.7393 74.5175 9.84553 74.6008 9.84553 76.3794C9.84553 76.8582 10.0849 77.8786 11.5933 77.8786C12.2489 77.8786 12.9877 77.5343 13.2785 76.9004H13.299V77.7532ZM5.62036 70.689V71.5634H6.40024V70.689H5.62036ZM7.39899 70.689V71.5634H8.17888V70.689H7.39899ZM8.10696 75.4022C8.10696 75.9735 8.07614 77.3165 6.53587 77.3165C5.93273 77.3165 5.43334 77.0555 5.43334 76.3589C5.43334 75.1936 6.78556 75.0796 7.91995 75.0796H8.10696V75.4022ZM8.16963 77.7532H8.8139C8.76252 77.3884 8.76252 77.0668 8.76252 76.6394V74.2997C8.76252 72.9156 8.21074 72.3228 6.89962 72.3228C6.4321 72.3228 5.74571 72.4892 5.33983 72.6865V73.3215C5.82893 73.0091 6.34887 72.8848 6.89962 72.8848C7.78431 72.8848 8.10696 73.342 8.10696 74.2473V74.5175H7.9816C6.60883 74.5175 4.7151 74.6008 4.7151 76.3794C4.7151 76.8582 4.95451 77.8786 6.46292 77.8786C7.11848 77.8786 7.85728 77.5343 8.14806 76.9004H8.16963V77.7532ZM0.279297 77.7532H3.91056V77.1295H0.997525V70.4917H0.279297V77.7532Z" fill="#FEFFFE"/>
</svg>
