<svg width="108" height="36" viewBox="0 0 108 36" fill="none" xmlns="http://www.w3.org/2000/svg">
<path d="M15.6436 4.05818V0.523636C14.5309 0.196364 13.3527 0 11.7818 0C11.3236 0 0 0 0 11.5855V34.9527H3.66545V11.4545C3.66545 3.40364 11.5855 3.6 12.1091 3.6C13.5491 3.6 14.5309 3.73091 15.6436 4.05818Z" fill="#21578A"/>
<path d="M21.7963 13.418H18.2617V35.0834H21.7963V13.418Z" fill="#21578A"/>
<path d="M30.4359 13.4182H26.8359V35.0836H30.3705V22.5818C30.3705 18.6545 32.1378 16.1673 35.5414 16.1673C38.945 16.1673 40.7123 18.5236 40.7123 22.5818V35.0836H44.2468V22.5818C44.2468 18.1963 46.3414 16.1673 49.4178 16.1673C52.8214 16.1673 54.5887 18.5236 54.5887 22.5818V35.0836H58.1232V22.32C58.1887 16.7563 54.7196 12.8945 49.3523 12.8945C46.5378 12.8945 44.1814 14.0727 42.3487 16.4945C40.8432 14.2036 38.2905 12.8945 35.345 12.8945C32.9232 12.8945 31.1559 13.8763 30.1741 14.9891L30.4359 13.4182Z" fill="#21578A"/>
<path d="M79.3314 22.3855H64.2114C64.9314 18.8509 68.0077 16.1673 71.8041 16.1673C75.1423 16.1673 78.4805 18.5236 79.3314 22.3855ZM83.1277 24.48C83.0623 22.6473 82.735 20.5527 81.4914 18.5236C79.9859 15.84 76.7132 12.8946 71.7386 12.8291C65.2586 12.96 60.4805 18.3273 60.4805 24.2182C60.4805 30.7636 65.7823 35.5418 71.7386 35.5418C76.7132 35.5418 81.0986 32.2691 82.6041 27.36H78.8732C77.9568 30.0436 75.4041 32.1382 71.7386 32.2036C68.5314 32.2036 64.735 29.7164 64.1459 25.5927H83.0623C83.1277 25.3309 83.1277 24.7418 83.1277 24.48Z" fill="#21578A"/>
<path d="M104.662 24.2836C104.662 28.8 101.193 32.3345 96.8072 32.3345C92.1599 32.3345 88.7562 28.9963 88.7562 24.3491C88.7562 19.44 92.3562 16.2327 96.8072 16.2327C101.193 16.1673 104.662 19.8982 104.662 24.2836ZM108 35.0836V13.4182H104.465V16.2327C101.913 13.3527 98.509 12.8945 96.7417 12.8945C89.6072 12.8945 85.1562 18.5236 85.1562 24.2182C85.1562 30.24 89.8035 35.6073 96.7417 35.6073C98.7708 35.6073 102.044 35.0182 104.465 32.2691V35.1491H108V35.0836Z" fill="#21578A"/>
<path d="M16.1016 12.1091V11.7164C16.1016 10.8655 15.447 10.2109 14.5961 10.2109H7.26522C6.41431 10.2109 5.75977 10.8655 5.75977 11.7164V12.1091C5.75977 12.96 6.41431 13.6146 7.26522 13.6146H14.6616C15.447 13.6146 16.1016 12.96 16.1016 12.1091Z" fill="#C50084"/>
</svg>
