<svg width="150" height="64" viewBox="0 0 150 64" fill="none" xmlns="http://www.w3.org/2000/svg">
<path d="M21.7028 5.57164V0.697893C20.1533 0.254824 18.5491 0 16.3528 0C15.7177 0 0 0 0 15.98V48.116H5.07083V15.6619C5.07083 4.65344 16.0141 4.86305 16.7984 4.86305C18.7603 4.86305 20.0961 5.05212 21.7028 5.57164Z" fill="#21578A"/>
<path d="M30.1632 18.4272H25.2266V48.241H30.1632V18.4272Z" fill="#21578A"/>
<path d="M42.0929 18.4281L37.1562 18.4223V48.2419H42.0929V31.0633C42.0929 25.6002 44.5145 22.2316 49.307 22.2316C54.0615 22.2316 56.5211 25.5344 56.5211 31.0633V48.2419H61.4578V31.0633C61.4578 24.9524 64.4011 22.2316 68.6719 22.2316C73.3941 22.2316 75.886 25.4867 75.886 31.0633V48.2419H80.8227V30.6449C80.8806 23.0749 76.0616 17.6833 68.6719 17.6973C64.7489 17.7047 61.4172 19.3479 59.0089 22.673C56.8963 19.5271 53.3749 17.6973 49.307 17.6973C45.9389 17.6973 43.5066 19.0906 42.0929 20.5579V18.4281Z" fill="#21578A"/>
<path d="M109.98 30.754H89.0282C89.9963 25.8532 94.3251 22.2305 99.4787 22.2305C104.116 22.2305 108.797 25.3641 109.98 30.754ZM115.155 33.6221C115.068 31.0787 114.586 28.2296 112.902 25.5137C110.82 21.799 106.247 17.7695 99.4265 17.6963C90.4468 17.8738 83.8555 25.1841 83.8555 33.3607C83.8555 42.2911 91.2468 48.9207 99.4787 48.9207C106.379 48.9207 112.48 44.3634 114.5 37.6491H109.311C108.053 41.3285 104.464 44.2902 99.4265 44.3864C94.9611 44.3864 89.7495 40.9726 88.9486 35.2883H115.103C115.132 34.8008 115.167 33.9879 115.155 33.6221Z" fill="#21578A"/>
<path d="M144.964 33.3607C144.964 39.5718 140.092 44.3864 134.067 44.3864C127.585 44.3864 122.905 39.7289 122.905 33.4133C122.905 26.6481 127.901 22.2305 134.067 22.2305C140.208 22.2305 144.964 27.2514 144.964 33.3607ZM149.69 48.2417V18.4279H144.753L144.754 22.2955C141.212 18.2725 136.51 17.6963 134.067 17.6963C124.195 17.6963 117.969 25.3904 117.969 33.2563C117.969 41.5381 124.428 48.9207 134.067 48.9207C136.87 48.9207 141.463 48.0912 144.754 44.2837L144.753 48.2417H149.69Z" fill="#21578A"/>
<path d="M22.3156 16.5915V16.0144C22.3156 14.8562 21.3699 13.9175 20.203 13.9175H9.98765C8.82076 13.9175 7.875 14.8562 7.875 16.0144V16.5915C7.875 17.7497 8.82076 18.6885 9.98765 18.6885H20.203C21.3699 18.6885 22.3156 17.7497 22.3156 16.5915Z" fill="#C50084"/>
<path d="M147.308 62.1029C147.685 62.2525 148.096 62.3027 148.507 62.3027C149.153 62.3027 150 61.9944 150 61.0951C150 59.7059 147.895 59.8054 147.895 59.0146C147.895 58.4737 148.272 58.3076 148.817 58.3076C149.11 58.3076 149.488 58.3816 149.765 58.5074L149.815 58.0487C149.438 57.9073 148.985 57.858 148.758 57.858C148.055 57.858 147.366 58.1745 147.366 59.0146C147.366 60.246 149.421 60.0881 149.421 61.0951C149.421 61.5776 148.976 61.853 148.474 61.853C148.063 61.853 147.677 61.7445 147.358 61.5867L147.308 62.1029ZM146.411 57.9575H145.883V60.3051C145.883 61.0121 145.582 61.853 144.617 61.853C143.888 61.853 143.602 61.3368 143.602 60.5378V57.9575H143.074V60.671C143.074 61.6031 143.476 62.3027 144.533 62.3027C145.422 62.3027 145.741 61.8275 145.917 61.4445H145.934V62.2024H146.445C146.411 61.8612 146.411 61.5283 146.411 61.2036V57.9575ZM139.014 62.2024H139.542V60.0215L141.655 62.2024H142.385L140.045 59.8382L142.133 57.9575H141.454L139.542 59.6969V55.96H139.014V62.2024ZM135.411 62.1029C135.789 62.2525 136.199 62.3027 136.61 62.3027C137.256 62.3027 138.102 61.9944 138.102 61.0951C138.102 59.7059 135.998 59.8054 135.998 59.0146C135.998 58.4737 136.375 58.3076 136.921 58.3076C137.214 58.3076 137.592 58.3816 137.868 58.5074L137.918 58.0487C137.541 57.9073 137.088 57.858 136.862 57.858C136.157 57.858 135.47 58.1745 135.47 59.0146C135.47 60.246 137.524 60.0881 137.524 61.0951C137.524 61.5776 137.08 61.853 136.576 61.853C136.165 61.853 135.78 61.7445 135.462 61.5867L135.411 62.1029ZM131.826 59.7799C131.826 59.0812 132.304 58.3076 133.084 58.3076C133.871 58.3076 134.174 59.0401 134.174 59.7799H131.826ZM134.433 61.5365C134.182 61.6944 133.62 61.853 133.235 61.853C132.312 61.853 131.826 61.1288 131.826 60.2295H134.752V59.9632C134.752 58.8231 134.257 57.858 133.05 57.858C131.968 57.858 131.247 58.7811 131.247 60.0799C131.247 61.3532 131.775 62.3027 133.192 62.3027C133.587 62.3027 134.064 62.2188 134.433 62.0692V61.5365ZM127.608 62.2024H128.136V60.0215L130.249 62.2024H130.979L128.639 59.8382L130.727 57.9575H130.048L128.136 59.6969V55.96H127.608V62.2024ZM124.005 62.1029C124.382 62.2525 124.793 62.3027 125.204 62.3027C125.85 62.3027 126.696 61.9944 126.696 61.0951C126.696 59.7059 124.592 59.8054 124.592 59.0146C124.592 58.4737 124.97 58.3076 125.514 58.3076C125.808 58.3076 126.185 58.3816 126.462 58.5074L126.512 58.0487C126.135 57.9073 125.682 57.858 125.456 57.858C124.751 57.858 124.064 58.1745 124.064 59.0146C124.064 60.246 126.118 60.0881 126.118 61.0951C126.118 61.5776 125.673 61.853 125.171 61.853C124.759 61.853 124.374 61.7445 124.055 61.5867L124.005 62.1029ZM123.098 56.8256V56.126H122.57V56.8256H123.098ZM122.57 57.9575V62.2024H123.098V57.9575H122.57ZM121.31 62.2024V59.2809C121.31 58.4572 120.824 57.858 119.96 57.858C119.289 57.858 118.786 58.2575 118.594 58.7565H118.576C118.442 58.0158 117.822 57.858 117.445 57.858C116.531 57.858 116.279 58.3907 116.112 58.6817L116.094 58.6734V57.9575H115.583C115.617 58.2986 115.617 58.6315 115.617 58.9562V62.2024H116.145V59.8555C116.145 58.7984 116.715 58.3076 117.294 58.3076C117.972 58.3076 118.199 58.7811 118.199 59.3804V62.2024H118.728V59.8555C118.728 58.7984 119.297 58.3076 119.876 58.3076C120.555 58.3076 120.782 58.7811 120.782 59.3804V62.2024H121.31ZM111.86 56.551V57.2505H112.488V56.551H111.86ZM113.293 56.551V57.2505H113.922V56.551H113.293ZM113.863 60.3216C113.863 60.7786 113.838 61.853 112.597 61.853C112.111 61.853 111.708 61.6442 111.708 61.0869C111.708 60.1547 112.798 60.0635 113.712 60.0635H113.863V60.3216ZM113.914 62.2024H114.434C114.391 61.9106 114.391 61.6533 114.391 61.3113V59.4396C114.391 58.3323 113.947 57.858 112.891 57.858C112.513 57.858 111.96 57.9912 111.633 58.149V58.657C112.027 58.4071 112.446 58.3076 112.891 58.3076C113.604 58.3076 113.863 58.6734 113.863 59.3976V59.6138H113.763C112.656 59.6138 111.13 59.6804 111.13 61.1033C111.13 61.4864 111.323 62.3027 112.538 62.3027C113.066 62.3027 113.662 62.0273 113.897 61.5201H113.914V62.2024ZM110.427 57.9575H109.455V56.7507L108.926 56.9341V57.9575H108.087V58.4071H108.926V60.8871C108.926 61.6615 108.96 62.3027 109.899 62.3027C110.159 62.3027 110.419 62.2361 110.545 62.1859L110.512 61.7527C110.36 61.8111 110.226 61.853 110.025 61.853C109.597 61.853 109.455 61.5365 109.455 61.1535V58.4071H110.427V57.9575ZM107.456 57.9575H106.483V56.7507L105.954 56.9341V57.9575H105.116V58.4071H105.954V60.8871C105.954 61.6615 105.988 62.3027 106.927 62.3027C107.187 62.3027 107.447 62.2361 107.573 62.1859L107.539 61.7527C107.389 61.8111 107.254 61.853 107.053 61.853C106.625 61.853 106.483 61.5365 106.483 61.1535V58.4071H107.456V57.9575ZM104.299 56.8256V56.126H103.77V56.8256H104.299ZM103.77 57.9575V62.2024H104.299V57.9575H103.77ZM99.1674 62.2024H99.6966V59.9303C99.6966 59.1897 100.023 58.3076 100.962 58.3076C101.834 58.3076 101.977 58.9398 101.977 59.6722V62.2024H102.505V59.664C102.505 58.6151 102.195 57.858 101.046 57.858C100.417 57.858 99.9392 58.2074 99.7131 58.6734H99.6966V55.96H99.1674V62.2024ZM95.2361 59.7799C95.2361 59.0812 95.7139 58.3076 96.4941 58.3076C97.2817 58.3076 97.5839 59.0401 97.5839 59.7799H95.2361ZM97.844 61.5365C97.5922 61.6944 97.0307 61.853 96.6448 61.853C95.7222 61.853 95.2361 61.1288 95.2361 60.2295H98.162V59.9632C98.162 58.8231 97.6676 57.858 96.4601 57.858C95.3785 57.858 94.6572 58.7811 94.6572 60.0799C94.6572 61.3532 95.1856 62.3027 96.6026 62.3027C96.9968 62.3027 97.4746 62.2188 97.844 62.0692V61.5365ZM91.0183 62.2024H91.5467V60.0215L93.6593 62.2024H94.3889L92.0493 59.8382L94.1371 57.9575H93.458L91.5467 59.6969V55.96H91.0183V62.2024ZM86.7002 60.3216C86.7002 60.7786 86.6746 61.853 85.434 61.853C84.947 61.853 84.5445 61.6442 84.5445 61.0869C84.5445 60.1547 85.6352 60.0635 86.5487 60.0635H86.7002V60.3216ZM86.7499 62.2024H87.27C87.2278 61.9106 87.2278 61.6533 87.2278 61.3113V59.4396C87.2278 58.3323 86.7839 57.858 85.7272 57.858C85.3495 57.858 84.7963 57.9912 84.4692 58.149V58.657C84.8634 58.4071 85.2824 58.3076 85.7272 58.3076C86.4402 58.3076 86.7002 58.6734 86.7002 59.3976V59.6138H86.5992C85.4928 59.6138 83.9665 59.6804 83.9665 61.1033C83.9665 61.4864 84.1595 62.3027 85.3752 62.3027C85.9036 62.3027 86.499 62.0273 86.7334 61.5201H86.7499V62.2024ZM83.0307 56.8256V56.126H82.5023V56.8256H83.0307ZM81.6054 63.9582C81.6891 63.9746 81.8398 64.0001 82.0667 64.0001C82.8377 64.0001 83.0307 63.4839 83.0307 62.8016V57.9575H82.5023V62.735C82.5023 63.1756 82.4601 63.5505 81.9234 63.5505C81.8232 63.5505 81.6808 63.5258 81.6054 63.5012V63.9582ZM76.8592 59.6722V60.246H78.9644V59.6722H76.8592ZM73.5309 62.1029C73.9077 62.2525 74.3184 62.3027 74.73 62.3027C75.3752 62.3027 76.2224 61.9944 76.2224 61.0951C76.2224 59.7059 74.1172 59.8054 74.1172 59.0146C74.1172 58.4737 74.4948 58.3076 75.0398 58.3076C75.3338 58.3076 75.7106 58.3816 75.9872 58.5074L76.0377 58.0487C75.66 57.9073 75.2079 57.858 74.9809 57.858C74.277 57.858 73.5897 58.1745 73.5897 59.0146C73.5897 60.246 75.6435 60.0881 75.6435 61.0951C75.6435 61.5776 75.1996 61.853 74.6961 61.853C74.2853 61.853 73.8994 61.7445 73.5805 61.5867L73.5309 62.1029ZM72.6339 57.9575H72.1056V60.3051C72.1056 61.0121 71.8041 61.853 70.8402 61.853C70.1097 61.853 69.8248 61.3368 69.8248 60.5378V57.9575H69.2973V60.671C69.2973 61.6031 69.6998 62.3027 70.7557 62.3027C71.6451 62.3027 71.9631 61.8275 72.1395 61.4445H72.1561V62.2024H72.6679C72.6339 61.8612 72.6339 61.5283 72.6339 61.2036V57.9575ZM68.0435 57.9575H67.5151V60.3051C67.5151 61.0121 67.2136 61.853 66.2488 61.853C65.5192 61.853 65.2343 61.3368 65.2343 60.5378V57.9575H64.706V60.671C64.706 61.6031 65.1085 62.3027 66.1652 62.3027C67.0538 62.3027 67.3727 61.8275 67.549 61.4445H67.5656V62.2024H68.0766C68.0435 61.8612 68.0435 61.5283 68.0435 61.2036V57.9575ZM61.1432 62.1029C61.5209 62.2525 61.9316 62.3027 62.3424 62.3027C62.9875 62.3027 63.8347 61.9944 63.8347 61.0951C63.8347 59.7059 61.7304 59.8054 61.7304 59.0146C61.7304 58.4737 62.108 58.3076 62.653 58.3076C62.9461 58.3076 63.3238 58.3816 63.6004 58.5074L63.6509 58.0487C63.2733 57.9073 62.8203 57.858 62.5942 57.858C61.8894 57.858 61.202 58.1745 61.202 59.0146C61.202 60.246 63.2567 60.0881 63.2567 61.0951C63.2567 61.5776 62.812 61.853 62.3093 61.853C61.8977 61.853 61.5126 61.7445 61.1937 61.5867L61.1432 62.1029ZM60.2364 56.8256V56.126H59.708V56.8256H60.2364ZM59.708 57.9575V62.2024H60.2364V57.9575H59.708ZM57.9142 55.96V62.2024H58.4426V55.96H57.9142ZM56.1213 55.96V62.2024H56.6496V55.96H56.1213ZM54.3647 60.3216C54.3647 60.7786 54.3391 61.853 53.0977 61.853C52.6115 61.853 52.209 61.6442 52.209 61.0869C52.209 60.1547 53.2989 60.0635 54.2132 60.0635H54.3647V60.3216ZM54.4144 62.2024H54.9345C54.8923 61.9106 54.8923 61.6533 54.8923 61.3113V59.4396C54.8923 58.3323 54.4484 57.858 53.3916 57.858C53.014 57.858 52.4608 57.9912 52.1337 58.149V58.657C52.5279 58.4071 52.9469 58.3076 53.3916 58.3076C54.1039 58.3076 54.3647 58.6734 54.3647 59.3976V59.6138H54.2637C53.1573 59.6138 51.631 59.6804 51.631 61.1033C51.631 61.4864 51.8231 62.3027 53.0397 62.3027C53.5672 62.3027 54.1635 62.0273 54.3979 61.5201H54.4144V62.2024ZM51.2782 57.9575H50.725L49.4844 61.6278H49.4678L48.2852 57.9575H47.7063L49.1573 62.2024H49.7776L51.2782 57.9575ZM45.2069 62.2024H45.7353V60.1054C45.7353 59.3393 45.9614 58.4071 46.8003 58.4071C46.9345 58.4071 47.0769 58.4236 47.1862 58.4572V57.9073C47.0935 57.8827 46.9428 57.858 46.8169 57.858C46.272 57.858 45.9117 58.2986 45.7187 58.7737H45.7022V57.9575H45.1738C45.2069 58.2657 45.2069 58.4408 45.2069 58.9069V62.2024ZM43.9283 57.9575H43.3999V60.3051C43.3999 61.0121 43.0984 61.853 42.1336 61.853C41.404 61.853 41.1191 61.3368 41.1191 60.5378V57.9575H40.5908V60.671C40.5908 61.6031 40.9933 62.3027 42.05 62.3027C42.9386 62.3027 43.2575 61.8275 43.4338 61.4445H43.4504V62.2024H43.9622C43.9283 61.8612 43.9283 61.5283 43.9283 61.2036V57.9575ZM39.7154 57.9575H38.7432V56.7507L38.2148 56.9341V57.9575H37.3767V58.4071H38.2148V60.8871C38.2148 61.6615 38.2487 62.3027 39.1879 62.3027C39.4471 62.3027 39.7071 62.2361 39.833 62.1859L39.7999 61.7527C39.6483 61.8111 39.5142 61.853 39.3129 61.853C38.8856 61.853 38.7432 61.5365 38.7432 61.1535V58.4071H39.7154V57.9575ZM30.6769 62.2024H31.2052V59.8555C31.2052 59.1478 31.5067 58.3076 32.4707 58.3076C33.2003 58.3076 33.486 58.8231 33.486 59.6221V62.2024H34.0135V59.4889C34.0135 58.5567 33.611 57.858 32.5552 57.858C31.6657 57.858 31.3477 58.3323 31.1713 58.7145H31.1547V57.9575H30.6429C30.6769 58.2986 30.6769 58.6315 30.6769 58.9562V62.2024ZM28.9237 60.3216C28.9237 60.7786 28.898 61.853 27.6574 61.853C27.1704 61.853 26.768 61.6442 26.768 61.0869C26.768 60.1547 27.8587 60.0635 28.7721 60.0635H28.9237V60.3216ZM28.9733 62.2024H29.4934C29.4512 61.9106 29.4512 61.6533 29.4512 61.3113V59.4396C29.4512 58.3323 29.0073 57.858 27.9506 57.858C27.5729 57.858 27.0197 57.9912 26.6926 58.149V58.657C27.0868 58.4071 27.5059 58.3076 27.9506 58.3076C28.6636 58.3076 28.9237 58.6734 28.9237 59.3976V59.6138H28.8226C27.7162 59.6138 26.1899 59.6804 26.1899 61.1033C26.1899 61.4864 26.3829 62.3027 27.5986 62.3027C28.127 62.3027 28.7216 62.0273 28.9568 61.5201H28.9733V62.2024ZM24.7133 55.96V62.2024H25.2417V55.96H24.7133ZM22.9568 60.3216C22.9568 60.7786 22.9311 61.853 21.6905 61.853C21.2044 61.853 20.8019 61.6442 20.8019 61.0869C20.8019 60.1547 21.8918 60.0635 22.8052 60.0635H22.9568V60.3216ZM23.0065 62.2024H23.5265C23.4851 61.9106 23.4851 61.6533 23.4851 61.3113V59.4396C23.4851 58.3323 23.0404 57.858 21.9837 57.858C21.6069 57.858 21.0528 57.9912 20.7257 58.149V58.657C21.1199 58.4071 21.5398 58.3076 21.9837 58.3076C22.6967 58.3076 22.9568 58.6734 22.9568 59.3976V59.6138H22.8557C21.7493 59.6138 20.223 59.6804 20.223 61.1033C20.223 61.4864 20.416 62.3027 21.6317 62.3027C22.1601 62.3027 22.7555 62.0273 22.9899 61.5201H23.0065V62.2024ZM16.6396 59.7799C16.6396 59.0812 17.1174 58.3076 17.8967 58.3076C18.6851 58.3076 18.9874 59.0401 18.9874 59.7799H16.6396ZM19.2466 61.5365C18.9957 61.6944 18.4334 61.853 18.0483 61.853C17.1257 61.853 16.6396 61.1288 16.6396 60.2295H19.5655V59.9632C19.5655 58.8231 19.071 57.858 17.8636 57.858C16.782 57.858 16.0607 58.7811 16.0607 60.0799C16.0607 61.3532 16.589 62.3027 18.006 62.3027C18.4002 62.3027 18.8781 62.2188 19.2466 62.0692V61.5365ZM12.4217 62.2024H12.9501V60.0215L15.0627 62.2024H15.7924L13.4528 59.8382L15.5406 57.9575H14.8615L12.9501 59.6969V55.96H12.4217V62.2024ZM8.66438 56.551V57.2505H9.29296V56.551H8.66438ZM10.0979 56.551V57.2505H10.7265V56.551H10.0979ZM10.6685 60.3216C10.6685 60.7786 10.6429 61.853 9.40227 61.853C8.91531 61.853 8.51283 61.6442 8.51283 61.0869C8.51283 60.1547 9.60352 60.0635 10.517 60.0635H10.6685V60.3216ZM10.7182 62.2024H11.2383C11.1961 61.9106 11.1961 61.6533 11.1961 61.3113V59.4396C11.1961 58.3323 10.7522 57.858 9.69544 57.858C9.3178 57.858 8.76459 57.9912 8.43747 58.149V58.657C8.83167 58.4071 9.25072 58.3076 9.69544 58.3076C10.4085 58.3076 10.6685 58.6734 10.6685 59.3976V59.6138H10.5675C9.46108 59.6138 7.93478 59.6804 7.93478 61.1033C7.93478 61.4864 8.12774 62.3027 9.34347 62.3027C9.87183 62.3027 10.4673 62.0273 10.7017 61.5201H10.7182V62.2024ZM4.52938 56.551V57.2505H5.15795V56.551H4.52938ZM5.96292 56.551V57.2505H6.59149V56.551H5.96292ZM6.53353 60.3216C6.53353 60.7786 6.50869 61.853 5.26727 61.853C4.78115 61.853 4.37865 61.6442 4.37865 61.0869C4.37865 60.1547 5.46851 60.0635 6.3828 60.0635H6.53353V60.3216ZM6.58404 62.2024H7.10331C7.0619 61.9106 7.0619 61.6533 7.0619 61.3113V59.4396C7.0619 58.3323 6.61717 57.858 5.56044 57.858C5.18362 57.858 4.63041 57.9912 4.30329 58.149V58.657C4.69749 58.4071 5.11655 58.3076 5.56044 58.3076C6.27348 58.3076 6.53353 58.6734 6.53353 59.3976V59.6138H6.43249C5.32607 59.6138 3.79976 59.6804 3.79976 61.1033C3.79976 61.4864 3.99273 62.3027 5.20847 62.3027C5.73684 62.3027 6.33229 62.0273 6.56665 61.5201H6.58404V62.2024ZM0.224609 62.2024H3.15132V61.7034H0.803485V56.3932H0.224609V62.2024Z" fill="#21578A"/>
</svg>
